HIERARCHY
ROOT Hips
{
	OFFSET 1.908470 -0.042395 0.993439
	CHANNELS 6 Xposition Yposition Zposition Zrotation Yrotation Xrotation 
	JOINT Spine
	{
		OFFSET -0.000033 8.340414 -2.713969
		CHANNELS 3 Zrotation Yrotation Xrotation
		JOINT Spine1
		{
			OFFSET 0.000010 11.910001 -2.100062
			CHANNELS 3 Zrotation Yrotation Xrotation
			JOINT Spine2
			{
				OFFSET 0.000008 12.047684 -1.054064
				CHANNELS 3 Zrotation Yrotation Xrotation
				JOINT Spine3
				{
					OFFSET 0.000034 12.093698 0.000019
					CHANNELS 3 Zrotation Yrotation Xrotation
					JOINT Neck
					{
						OFFSET -0.000030 15.549049 1.554890
						CHANNELS 3 Zrotation Yrotation Xrotation
						JOINT Neck1
						{
							OFFSET 0.000026 4.687321 0.410073
							CHANNELS 3 Zrotation Yrotation Xrotation
							JOINT Head
							{
								OFFSET 0.000048 4.633810 0.817085
								CHANNELS 3 Zrotation Yrotation Xrotation
								JOINT HeadEnd
								{
									OFFSET -0.000004 9.727756 -0.000004
									CHANNELS 3 Zrotation Yrotation Xrotation
									End Site
									{
										OFFSET 0.000000 0.000000 0.000000
									}
								}
							}
						}
					}
					JOINT RightShoulder
					{
						OFFSET 0.000027 11.106509 6.072620
						CHANNELS 3 Zrotation Yrotation Xrotation
						JOINT RightArm
						{
							OFFSET -19.427916 0.000068 0.000011
							CHANNELS 3 Zrotation Yrotation Xrotation
							JOINT RightForeArm
							{
								OFFSET -29.350728 0.000009 0.000017
								CHANNELS 3 Zrotation Yrotation Xrotation
								JOINT RightHand
								{
									OFFSET -27.018058 -0.000000 0.000069
									CHANNELS 3 Zrotation Yrotation Xrotation
									JOINT RightHandMiddle1
									{
										OFFSET -9.244018 -0.000005 -0.000011
										CHANNELS 3 Zrotation Yrotation Xrotation
										JOINT RightHandMiddle2
										{
											OFFSET -4.870073 -0.000013 -0.000005
											CHANNELS 3 Zrotation Yrotation Xrotation
											JOINT RightHandMiddle3
											{
												OFFSET -3.169079 0.000016 -0.000008
												CHANNELS 3 Zrotation Yrotation Xrotation
												JOINT RightHandMiddle4
												{
													OFFSET -1.888357 -0.000012 -0.000006
													CHANNELS 3 Zrotation Yrotation Xrotation
													End Site
													{
														OFFSET 0.000000 0.000000 0.000000
													}
												}
											}
										}
									}
									JOINT RightHandRing
									{
										OFFSET -0.249989 -0.250014 -0.956469
										CHANNELS 3 Zrotation Yrotation Xrotation
										JOINT RightHandRing1
										{
											OFFSET -8.140222 0.000033 -0.734579
											CHANNELS 3 Zrotation Yrotation Xrotation
											JOINT RightHandRing2
											{
												OFFSET -4.501569 -0.000029 -0.406258
												CHANNELS 3 Zrotation Yrotation Xrotation
												JOINT RightHandRing3
												{
													OFFSET -3.068842 0.000004 -0.276952
													CHANNELS 3 Zrotation Yrotation Xrotation
													JOINT RightHandRing4
													{
														OFFSET -1.869939 0.000006 -0.168764
														CHANNELS 3 Zrotation Yrotation Xrotation
														End Site
														{
															OFFSET 0.000000 0.000000 0.000000
														}
													}
												}
											}
										}
										JOINT RightHandPinky
										{
											OFFSET -0.163071 -0.249976 -0.975114
											CHANNELS 3 Zrotation Yrotation Xrotation
											JOINT RightHandPinky1
											{
												OFFSET -6.681455 -0.000027 -1.494098
												CHANNELS 3 Zrotation Yrotation Xrotation
												JOINT RightHandPinky2
												{
													OFFSET -3.580973 -0.000003 -0.800781
													CHANNELS 3 Zrotation Yrotation Xrotation
													JOINT RightHandPinky3
													{
														OFFSET -2.276525 -0.000021 -0.509053
														CHANNELS 3 Zrotation Yrotation Xrotation
														JOINT RightHandPinky4
														{
															OFFSET -1.690357 -0.000016 -0.377984
															CHANNELS 3 Zrotation Yrotation Xrotation
															End Site
															{
																OFFSET 0.000000 0.000000 0.000000
															}
														}
													}
												}
											}
										}
									}
									JOINT RightHandIndex
									{
										OFFSET -0.249990 -0.249994 0.956494
										CHANNELS 3 Zrotation Yrotation Xrotation
										JOINT RightHandIndex1
										{
											OFFSET -8.934081 0.000033 0.806259
											CHANNELS 3 Zrotation Yrotation Xrotation
											JOINT RightHandIndex2
											{
												OFFSET -4.694678 -0.000008 0.423665
												CHANNELS 3 Zrotation Yrotation Xrotation
												JOINT RightHandIndex3
												{
													OFFSET -2.811730 0.000011 0.253715
													CHANNELS 3 Zrotation Yrotation Xrotation
													JOINT RightHandIndex4
													{
														OFFSET -1.709901 -0.000028 0.154270
														CHANNELS 3 Zrotation Yrotation Xrotation
														End Site
														{
															OFFSET 0.000000 0.000000 0.000000
														}
													}
												}
											}
										}
										JOINT RightHandThumb1
										{
											OFFSET -0.163004 -0.749989 0.975096
											CHANNELS 3 Zrotation Yrotation Xrotation
											JOINT RightHandThumb2
											{
												OFFSET -5.411693 0.835523 2.244705
												CHANNELS 3 Zrotation Yrotation Xrotation
												JOINT RightHandThumb3
												{
													OFFSET -3.567162 0.550727 1.479618
													CHANNELS 3 Zrotation Yrotation Xrotation
													JOINT RightHandThumb4
													{
														OFFSET -2.150553 0.332032 0.892035
														CHANNELS 3 Zrotation Yrotation Xrotation
														End Site
														{
															OFFSET 0.000000 0.000000 0.000000
														}
													}
												}
											}
										}
									}
								}
							}
						}
					}
					JOINT LeftShoulder
					{
						OFFSET 0.000043 11.106479 6.072652
						CHANNELS 3 Zrotation Yrotation Xrotation
						JOINT LeftArm
						{
							OFFSET 19.427877 -0.000003 -0.000007
							CHANNELS 3 Zrotation Yrotation Xrotation
							JOINT LeftForeArm
							{
								OFFSET 29.350742 0.000028 0.000034
								CHANNELS 3 Zrotation Yrotation Xrotation
								JOINT LeftHand
								{
									OFFSET 27.018049 -0.000044 -0.000029
									CHANNELS 3 Zrotation Yrotation Xrotation
									JOINT LeftHandMiddle1
									{
										OFFSET 9.402661 0.000028 0.000000
										CHANNELS 3 Zrotation Yrotation Xrotation
										JOINT LeftHandMiddle2
										{
											OFFSET 4.950125 -0.000002 -0.000008
											CHANNELS 3 Zrotation Yrotation Xrotation
											JOINT LeftHandMiddle3
											{
												OFFSET 3.211945 0.000003 -0.000013
												CHANNELS 3 Zrotation Yrotation Xrotation
												JOINT LeftHandMiddle4
												{
													OFFSET 1.927630 0.000006 0.000018
													CHANNELS 3 Zrotation Yrotation Xrotation
													End Site
													{
														OFFSET 0.000000 0.000000 0.000000
													}
												}
											}
										}
									}
									JOINT LeftHandRing
									{
										OFFSET 0.249966 -0.250016 -0.906125
										CHANNELS 3 Zrotation Yrotation Xrotation
										JOINT LeftHandRing1
										{
											OFFSET 8.286080 -0.000015 -0.747790
											CHANNELS 3 Zrotation Yrotation Xrotation
											JOINT LeftHandRing2
											{
												OFFSET 4.585526 0.000013 -0.413806
												CHANNELS 3 Zrotation Yrotation Xrotation
												JOINT LeftHandRing3
												{
													OFFSET 3.124447 0.000003 -0.281973
													CHANNELS 3 Zrotation Yrotation Xrotation
													JOINT LeftHandRing4
													{
														OFFSET 1.908781 -0.000011 -0.172256
														CHANNELS 3 Zrotation Yrotation Xrotation
														End Site
														{
															OFFSET 0.000000 0.000000 0.000000
														}
													}
												}
											}
										}
										JOINT LeftHandPinky
										{
											OFFSET 0.167548 -0.249998 -0.924968
											CHANNELS 3 Zrotation Yrotation Xrotation
											JOINT LeftHandPinky1
											{
												OFFSET 6.823476 0.000011 -1.525920
												CHANNELS 3 Zrotation Yrotation Xrotation
												JOINT LeftHandPinky2
												{
													OFFSET 3.642807 -0.000003 -0.814578
													CHANNELS 3 Zrotation Yrotation Xrotation
													JOINT LeftHandPinky3
													{
														OFFSET 2.333123 0.000006 -0.521710
														CHANNELS 3 Zrotation Yrotation Xrotation
														JOINT LeftHandPinky4
														{
															OFFSET 1.725457 0.000007 -0.385880
															CHANNELS 3 Zrotation Yrotation Xrotation
															End Site
															{
																OFFSET 0.000000 0.000000 0.000000
															}
														}
													}
												}
											}
										}
									}
									JOINT LeftHandIndex
									{
										OFFSET 0.250024 -0.249991 0.906143
										CHANNELS 3 Zrotation Yrotation Xrotation
										JOINT LeftHandIndex1
										{
											OFFSET 9.087969 -0.000020 0.820136
											CHANNELS 3 Zrotation Yrotation Xrotation
											JOINT LeftHandIndex2
											{
												OFFSET 4.776559 -0.000018 0.431065
												CHANNELS 3 Zrotation Yrotation Xrotation
												JOINT LeftHandIndex3
												{
													OFFSET 2.865140 0.000021 0.258586
													CHANNELS 3 Zrotation Yrotation Xrotation
													JOINT LeftHandIndex4
													{
														OFFSET 1.745445 0.000003 0.157490
														CHANNELS 3 Zrotation Yrotation Xrotation
														End Site
														{
															OFFSET 0.000000 0.000000 0.000000
														}
													}
												}
											}
										}
										JOINT LeftHandThumb1
										{
											OFFSET 0.167564 -0.749995 0.924960
											CHANNELS 3 Zrotation Yrotation Xrotation
											JOINT LeftHandThumb2
											{
												OFFSET 5.551481 0.857113 2.302689
												CHANNELS 3 Zrotation Yrotation Xrotation
												JOINT LeftHandThumb3
												{
													OFFSET 3.625652 0.559721 1.503913
													CHANNELS 3 Zrotation Yrotation Xrotation
													JOINT LeftHandThumb4
													{
														OFFSET 2.195247 0.338921 0.910543
														CHANNELS 3 Zrotation Yrotation Xrotation
														End Site
														{
															OFFSET 0.000000 0.000000 0.000000
														}
													}
												}
											}
										}
									}
								}
							}
						}
					}
				}
			}
		}
	}
	JOINT RightUpLeg
	{
		OFFSET -8.786534 0.000035 -0.000020
		CHANNELS 3 Zrotation Yrotation Xrotation
		JOINT RightLeg
		{
			OFFSET -0.000066 -42.170407 -0.000063
			CHANNELS 3 Zrotation Yrotation Xrotation
			JOINT RightFoot
			{
				OFFSET 0.000035 -45.949168 0.000029
				CHANNELS 3 Zrotation Yrotation Xrotation
				JOINT RightForeFoot
				{
					OFFSET 0.000005 -4.685854 -0.000012
					CHANNELS 3 Zrotation Yrotation Xrotation
					JOINT RightToeBase
					{
						OFFSET -0.000065 -0.000017 18.351113
						CHANNELS 3 Zrotation Yrotation Xrotation
						JOINT RightToeBaseEnd
						{
							OFFSET 0.000039 0.000028 6.416943
							CHANNELS 3 Zrotation Yrotation Xrotation
							End Site
							{
								OFFSET 0.000000 0.000000 0.000000
							}
						}
					}
				}
			}
		}
	}
	JOINT LeftUpLeg
	{
		OFFSET 8.786549 -0.000053 -0.000049
		CHANNELS 3 Zrotation Yrotation Xrotation
		JOINT LeftLeg
		{
			OFFSET 0.000008 -42.170443 0.000003
			CHANNELS 3 Zrotation Yrotation Xrotation
			JOINT LeftFoot
			{
				OFFSET -0.000018 -45.949175 0.000015
				CHANNELS 3 Zrotation Yrotation Xrotation
				JOINT LeftForeFoot
				{
					OFFSET 0.000071 -4.685833 0.000035
					CHANNELS 3 Zrotation Yrotation Xrotation
					JOINT LeftToeBase
					{
						OFFSET 0.000032 -0.000048 18.351035
						CHANNELS 3 Zrotation Yrotation Xrotation
						JOINT LeftToeBaseEnd
						{
							OFFSET -0.000004 0.000017 7.522031
							CHANNELS 3 Zrotation Yrotation Xrotation
							End Site
							{
								OFFSET 0.000000 0.000000 0.000000
							}
						}
					}
				}
			}
		}
	}
}
MOTION
Frames: 4
Frame Time: 0.066667
1.908470 -0.042395 0.993439 -6.911411 17.506449 2.679361 9.290818 -1.215895 0.616694 -0.057523 -0.157306 -2.835845 -0.056585 0.450459 -1.918584 1.207668 0.741735 7.346786 3.131375 1.109992 7.089732 -9.058284 4.887312 0.107272 -5.641653 1.313420 1.628877 -0.000169 0.000137 0.000379 6.622179 -13.397002 -1.553887 70.202454 0.594036 22.405693 179.997421 61.051819 152.727615 -18.597204 -14.445392 0.085266 33.961864 -6.640728 -0.003855 39.797268 -0.000840 0.000852 22.841677 -0.003025 0.001224 0.000871 -0.001205 0.001616 -1.254705 -1.698447 -5.735800 36.980732 -4.706356 -3.098218 49.514442 1.832666 -3.934874 18.005135 0.251878 -1.597389 0.001333 0.002515 0.000105 -1.853751 -4.119039 -4.420302 26.058544 2.544733 -5.659951 44.968838 3.764277 -9.094902 33.723789 2.145472 -7.129561 0.000212 -0.001423 0.000637 0.922438 7.589452 -1.538841 30.197071 -14.591486 2.721950 36.902225 -1.046165 3.108957 21.239910 -0.352562 1.873466 0.001189 0.000707 0.000863 10.704912 -7.700713 60.165939 8.122795 4.619425 3.998291 2.717049 -1.767900 0.818511 -0.000213 -0.000099 -0.001255 -9.940353 8.812072 -1.556000 -62.485451 3.110812 30.885418 179.998734 -53.487118 169.065201 -0.293471 24.111441 -0.066507 -25.127071 4.158035 0.002831 -53.021152 0.000680 0.000559 -25.970341 -0.000227 -0.000747 -0.001071 0.000477 0.000216 -0.692843 1.824234 -10.654173 -20.704264 3.809029 -1.819871 -58.994835 -2.503325 -4.436692 -14.500546 -0.165181 -1.295898 0.000671 0.000305 0.000179 -0.479021 1.648513 -4.894175 -9.610593 5.804083 -2.108070 -42.998775 -3.453054 -8.773366 -30.415371 -1.752854 -6.500525 0.000459 -0.003070 -0.000326 -0.726749 -6.791946 -3.640502 -26.716755 13.960767 2.462710 -44.660816 1.479014 3.637534 -20.792809 0.330032 1.837318 -0.001932 0.000178 -0.000184 -15.844649 11.008174 53.985065 -6.018702 5.058614 1.570856 0.000000 0.000000 0.000000 0.000544 0.000722 -0.000772 5.100883 -4.168662 1.840642 -0.000181 0.002406 1.604386 0.000000 0.000000 -0.000000 -0.000000 0.000000 0.000000 0.000000 0.000000 0.000000 0.000000 0.000000 0.000000 13.943050 -7.965237 -0.063276 -0.001495 0.002075 0.715754 -0.000000 -0.000000 -0.000000 -0.000000 -0.000000 -0.000000 -0.000000 0.000000 0.000000 0.000000 0.000000 0.000000 
1.884813 -0.033629 1.081818 -6.909550 17.481739 2.706852 9.310452 -1.210174 0.670504 -0.056783 -0.159082 -2.824966 -0.055540 0.419571 -1.900166 1.211480 0.738061 7.381207 3.125443 1.189109 7.259640 -8.991873 5.058765 0.177418 -5.633808 1.323245 1.659089 0.000182 -0.000567 0.000476 6.742635 -13.435742 -1.584852 70.241257 0.471319 22.469515 179.997803 61.257874 152.421814 -20.207422 -13.840492 0.063170 34.084259 -6.596693 -0.003148 39.760181 -0.000733 0.000603 22.883410 -0.002848 0.001447 0.000638 -0.000735 0.001449 -1.238049 -1.732998 -5.675404 37.202030 -4.579657 -3.114100 49.739223 1.847545 -3.948851 17.990639 0.251925 -1.595901 0.001266 0.002481 -0.000179 -1.839953 -4.184542 -4.386692 26.175114 2.810549 -5.691071 45.110508 3.787446 -9.116424 33.810780 2.155519 -7.145790 -0.000043 -0.001568 0.000907 0.949351 7.606038 -1.518769 30.324659 -14.572337 2.731963 36.924412 -1.047022 3.110880 21.327663 -0.355858 1.880569 0.000930 0.000589 0.000897 10.851989 -7.912387 60.286407 8.476359 4.446514 4.084013 2.915134 -1.895498 0.873476 -0.000295 -0.000152 -0.001197 -10.066747 8.853422 -1.583815 -62.358730 3.206018 31.571075 179.998688 -53.548382 170.078293 1.919904 24.266985 -0.037828 -25.075790 4.160944 0.002699 -53.027157 0.000852 0.000137 -25.944910 -0.000216 -0.000813 -0.000931 0.000426 0.000219 -0.692405 1.834137 -10.652102 -20.619957 3.805425 -1.812355 -59.063934 -2.507765 -4.439322 -14.452189 -0.164489 -1.291403 0.000574 0.000278 0.000276 -0.475163 1.669528 -4.876118 -9.432767 5.785926 -2.069653 -43.091812 -3.470664 -8.788244 -30.413645 -1.753381 -6.501114 0.000518 -0.002881 -0.000454 -0.734845 -6.797003 -3.635642 -26.852585 13.931352 2.473053 -44.744240 1.483967 3.642015 -20.883213 0.333492 1.844908 -0.001929 -0.000276 -0.000167 -15.894850 11.021508 53.961475 -6.011199 5.075209 1.564664 0.000000 0.000000 0.000000 0.000748 0.000656 -0.000685 5.135069 -4.093534 1.867337 -0.000018 0.002415 1.562790 0.000000 0.000000 -0.000000 -0.000000 -0.000000 0.000000 0.000000 -0.000000 0.000000 0.000000 0.000000 0.000000 13.959817 -7.990147 -0.088925 -0.001192 0.001880 0.673688 -0.000000 -0.000000 -0.000000 -0.000000 -0.000000 -0.000000 -0.000000 0.000000 0.000000 0.000000 0.000000 0.000000 
1.858718 -0.025412 1.172119 -6.911036 17.467817 2.730055 9.327258 -1.206092 0.716715 -0.056437 -0.160795 -2.815364 -0.053787 0.389357 -1.882627 1.217930 0.734229 7.413962 3.122118 1.255907 7.404060 -8.930893 5.208350 0.234100 -5.626749 1.331754 1.685551 0.000480 -0.001189 0.000555 6.855331 -13.472791 -1.614156 70.257736 0.376572 22.511131 179.998108 61.418621 152.169907 -21.353413 -13.397140 0.046591 34.188183 -6.552741 -0.002558 39.771420 -0.000645 0.000374 22.950237 -0.002693 0.001628 0.000444 -0.000341 0.001308 -1.222739 -1.763449 -5.620151 37.384491 -4.462820 -3.127198 49.984730 1.864249 -3.963892 17.994947 0.252455 -1.596068 0.001210 0.002460 -0.000425 -1.827366 -4.244877 -4.357354 26.254862 3.049691 -5.714134 45.273193 3.814411 -9.141448 33.908421 2.167027 -7.164025 -0.000259 -0.001695 0.001128 0.973986 7.621943 -1.500317 30.451052 -14.551805 2.741886 36.978630 -1.049803 3.115042 21.443033 -0.360119 1.890033 0.000720 0.000496 0.000942 10.996256 -8.107012 60.390358 8.805947 4.274560 4.161917 3.118623 -2.027261 0.929671 -0.000387 -0.000196 -0.001136 -10.178514 8.891419 -1.608432 -62.249905 3.252782 32.091137 179.998627 -53.590714 170.779694 3.563692 24.373293 -0.013623 -25.008036 4.167313 0.002567 -53.032192 0.001003 -0.000229 -25.921461 -0.000186 -0.000876 -0.000813 0.000372 0.000219 -0.691813 1.842633 -10.652401 -20.527857 3.806826 -1.804230 -59.129971 -2.512126 -4.441878 -14.409918 -0.163877 -1.287460 0.000494 0.000248 0.000357 -0.471998 1.688066 -4.859621 -9.265923 5.775543 -2.033539 -43.172504 -3.485978 -8.801167 -30.411194 -1.753746 -6.501491 0.000568 -0.002709 -0.000563 -0.742825 -6.801917 -3.630088 -26.965187 13.902205 2.481462 -44.823547 1.488719 3.646336 -20.965675 0.336624 1.851830 -0.001923 -0.000669 -0.000149 -15.941575 11.040996 53.944969 -6.017112 5.093279 1.563063 0.000000 0.000000 0.000000 0.000922 0.000593 -0.000609 5.168440 -4.025167 1.887397 0.000125 0.002399 1.526610 0.000000 0.000000 -0.000000 -0.000000 -0.000000 0.000000 0.000000 -0.000000 0.000000 0.000000 0.000000 0.000000 13.975289 -8.015368 -0.107244 -0.000924 0.001717 0.636378 -0.000000 -0.000000 -0.000000 -0.000000 -0.000000 -0.000000 -0.000000 -0.000000 0.000000 0.000000 0.000000 0.000000 
1.830166 -0.017745 1.264344 -6.915866 17.464691 2.748975 9.341240 -1.203647 0.755326 -0.056487 -0.162445 -2.807039 -0.051325 0.359818 -1.865972 1.227021 0.730239 7.445052 3.121405 1.310391 7.522984 -8.875344 5.336084 0.277346 -5.620473 1.338947 1.708261 0.000726 -0.001729 0.000616 6.960260 -13.508162 -1.641797 70.251877 0.309818 22.530453 179.998322 61.533970 151.972336 -22.056021 -13.115814 0.035533 34.273659 -6.508883 -0.002083 39.830933 -0.000577 0.000165 23.042171 -0.002560 0.001770 0.000287 -0.000022 0.001192 -1.208776 -1.789798 -5.570043 37.528114 -4.355893 -3.137533 50.251007 1.882772 -3.979982 18.018066 0.253468 -1.597889 0.001165 0.002451 -0.000633 -1.815990 -4.300044 -4.332284 26.297794 3.262193 -5.729094 45.456909 3.845159 -9.169949 34.016735 2.179995 -7.184259 -0.000435 -0.001804 0.001301 0.996343 7.637170 -1.483485 30.576227 -14.529895 2.751716 37.064903 -1.054509 3.121440 21.586031 -0.365344 1.901851 0.000560 0.000428 0.000997 11.137687 -8.284578 60.477825 9.111562 4.103617 4.232024 3.327527 -2.163189 0.987096 -0.000489 -0.000228 -0.001074 -10.275652 8.926070 -1.629848 -62.158993 3.251103 32.446262 179.998566 -53.614086 171.173584 4.650942 24.449316 0.004047 -24.923811 4.177135 0.002433 -53.036247 0.001133 -0.000540 -25.899982 -0.000139 -0.000935 -0.000717 0.000317 0.000218 -0.691066 1.849721 -10.655069 -20.427965 3.813231 -1.795496 -59.192970 -2.516408 -4.444359 -14.373733 -0.163347 -1.284070 0.000430 0.000215 0.000420 -0.469524 1.704129 -4.844687 -9.110055 5.772940 -1.999731 -43.240826 -3.498996 -8.812130 -30.408007 -1.753950 -6.501653 0.000610 -0.002554 -0.000652 -0.750690 -6.806686 -3.623839 -27.054564 13.873361 2.487945 -44.898743 1.493271 3.650500 -21.040192 0.339429 1.858083 -0.001914 -0.001000 -0.000130 -15.984831 11.066643 53.935543 -6.036448 5.112828 1.566051 0.000000 0.000000 0.000000 0.001067 0.000535 -0.000543 5.201007 -3.963532 1.900831 0.000249 0.002358 1.495848 0.000000 0.000000 -0.000000 -0.000000 -0.000000 0.000000 0.000000 -0.000000 0.000000 0.000000 0.000000 0.000000 13.989464 -8.040900 -0.118232 -0.000691 0.001586 0.603823 -0.000000 -0.000000 -0.000000 -0.000000 -0.000000 -0.000000 -0.000000 -0.000000 0.000000 0.000000 0.000000 0.000000 
